<svg width="18" height="19" viewBox="0 0 18 19" fill="none" xmlns="http://www.w3.org/2000/svg">
<g clip-path="url(#clip0_128_22137)">
<path d="M15 9.54492V6.16992L11.625 2.41992H3.75C3.33579 2.41992 3 2.75571 3 3.16992V16.6699C3 17.0841 3.33579 17.4199 3.75 17.4199H8.25" stroke="#83898F" stroke-width="1.4" stroke-linecap="round" stroke-linejoin="round"/>
<path d="M11.625 15.9199C12.8676 15.9199 13.875 14.9126 13.875 13.6699C13.875 12.4273 12.8676 11.4199 11.625 11.4199C10.3824 11.4199 9.375 12.4273 9.375 13.6699C9.375 14.9126 10.3824 15.9199 11.625 15.9199Z" fill="#83898F" stroke="#83898F" stroke-width="1.4"/>
<path d="M14 14.9199L15.875 16.4199" stroke="#83898F" stroke-width="1.4" stroke-linecap="round" stroke-linejoin="round"/>
<path d="M11.25 2.41992V6.16992H15" stroke="#83898F" stroke-width="1.4" stroke-linecap="round" stroke-linejoin="round"/>
</g>
<defs>
<clipPath id="clip0_128_22137">
<rect width="18" height="18" fill="white" transform="translate(0 0.919922)"/>
</clipPath>
</defs>
</svg>
