<svg width="16" height="17" viewBox="0 0 16 17" fill="none" xmlns="http://www.w3.org/2000/svg">
<path d="M13 2.91992H3C2.44772 2.91992 2 3.36764 2 3.91992V13.9199C2 14.4722 2.44772 14.9199 3 14.9199H13C13.5523 14.9199 14 14.4722 14 13.9199V3.91992C14 3.36764 13.5523 2.91992 13 2.91992Z" stroke="#83898F" stroke-width="1.4" stroke-linecap="round" stroke-linejoin="round"/>
<path d="M6.00065 8.58657C6.92112 8.58657 7.66732 7.84037 7.66732 6.9199C7.66732 5.99943 6.92112 5.25323 6.00065 5.25323C5.08018 5.25323 4.33398 5.99943 4.33398 6.9199C4.33398 7.84037 5.08018 8.58657 6.00065 8.58657Z" fill="#83898F" stroke="#83898F" stroke-width="1.4" stroke-linecap="round" stroke-linejoin="round"/>
<path d="M14 12.9199L10.3333 9.58661L7 12.5866L4.66667 10.5866L2 12.5866" stroke="#83898F" stroke-width="1.4" stroke-linecap="round" stroke-linejoin="round"/>
</svg>
