<svg width="24" height="24" viewBox="0 0 24 24" fill="none" xmlns="http://www.w3.org/2000/svg">
<path d="M14.9536 14.9458L21 21M17 10C17 13.866 13.866 17 10 17C6.13401 17 3 13.866 3 10C3 6.13401 6.13401 3 10 3C13.866 3 17 6.13401 17 10Z" stroke="white" stroke-width="2" stroke-linecap="round" stroke-linejoin="round"/>
<path d="M13.6992 13H12.6289V9.66406C12.6289 9.54427 12.6289 9.42708 12.6289 9.3125C12.6315 9.19531 12.6341 9.08073 12.6367 8.96875C12.6419 8.85417 12.6471 8.74219 12.6523 8.63281C12.6159 8.68229 12.5729 8.73828 12.5234 8.80078C12.474 8.86328 12.4154 8.93229 12.3477 9.00781L11.8516 9.51953L11.2109 8.88672L12.7461 7.28906H13.6992V13Z" fill="white"/>
<path d="M9.18359 12.4336C9.18359 12.2201 9.23568 12.0573 9.33984 11.9453C9.44661 11.8333 9.60156 11.7773 9.80469 11.7773C9.9974 11.7773 10.1458 11.8333 10.25 11.9453C10.3542 12.0547 10.4062 12.2174 10.4062 12.4336C10.4062 12.6445 10.3516 12.8073 10.2422 12.9219C10.1354 13.0339 9.98958 13.0898 9.80469 13.0898C9.60938 13.0898 9.45703 13.0339 9.34766 12.9219C9.23828 12.8073 9.18359 12.6445 9.18359 12.4336ZM9.18359 9.23828C9.18359 9.02734 9.23568 8.86458 9.33984 8.75C9.44661 8.63281 9.60156 8.57422 9.80469 8.57422C10.0026 8.57422 10.1523 8.63281 10.2539 8.75C10.3555 8.86458 10.4062 9.02734 10.4062 9.23828C10.4062 9.45182 10.3516 9.61458 10.2422 9.72656C10.1354 9.83854 9.98958 9.89453 9.80469 9.89453C9.60938 9.89453 9.45703 9.83724 9.34766 9.72266C9.23828 9.60807 9.18359 9.44661 9.18359 9.23828Z" fill="white"/>
<path d="M7.86328 13H6.79297V9.66406C6.79297 9.54427 6.79297 9.42708 6.79297 9.3125C6.79557 9.19531 6.79818 9.08073 6.80078 8.96875C6.80599 8.85417 6.8112 8.74219 6.81641 8.63281C6.77995 8.68229 6.73698 8.73828 6.6875 8.80078C6.63802 8.86328 6.57943 8.93229 6.51172 9.00781L6.01562 9.51953L5.375 8.88672L6.91016 7.28906H7.86328V13Z" fill="white"/>
</svg>
