<svg version="1.1" id="Layer_1" xmlns="http://www.w3.org/2000/svg" xmlns:xlink="http://www.w3.org/1999/xlink" x="0px" y="0px"
	 width="100%" viewBox="0 0 208 56" enable-background="new 0 0 208 56" xml:space="preserve">
<path fill="#000000" opacity="1.000000" stroke="none" 
	d="
M48.000000,1.000001 
	C101.604500,1.000000 155.209000,1.000000 208.906754,1.000000 
	C208.906754,19.582468 208.906754,38.165558 208.906754,57.000000 
	C155.646042,57.000000 102.291679,57.000000 48.343758,56.633461 
	C49.298332,55.462856 50.822849,54.608936 52.398350,53.862644 
	C64.453407,48.152309 69.883095,35.104393 68.867767,27.328739 
	C67.312172,15.415567 60.841579,7.152984 49.423229,2.924626 
	C48.797108,2.692767 48.467583,1.659978 48.000000,1.000001 
M107.969063,36.320518 
	C109.396301,32.980923 110.823540,29.641327 112.250778,26.301731 
	C112.595192,26.407923 112.939613,26.514112 113.284035,26.620304 
	C113.284035,33.705666 113.284035,40.791031 113.284035,47.681580 
	C117.044571,47.681580 120.449463,47.681580 123.705872,47.681580 
	C123.705872,35.291676 123.705872,23.222113 123.705872,11.173100 
	C111.880455,10.623738 111.884193,10.625456 106.968422,21.330193 
	C105.141747,25.308002 103.293045,29.275698 101.152557,33.900097 
	C97.355911,25.643475 93.981140,18.304323 90.785347,11.354399 
	C86.208649,11.354399 82.143784,11.354399 78.328110,11.354399 
	C78.328110,23.782347 78.328110,35.854485 78.328110,47.662598 
	C81.076607,47.662598 83.479355,47.662598 86.269165,47.662598 
	C86.269165,40.404118 86.269165,33.478245 86.269165,26.368277 
	C89.622070,33.141399 92.723396,39.632671 96.042641,46.010521 
	C97.572174,48.949463 101.343010,48.909676 102.966866,46.014248 
	C104.617180,43.071629 106.023804,39.992332 107.969063,36.320518 
M184.024078,32.255032 
	C185.343643,34.105774 186.983871,35.807304 187.926682,37.833359 
	C191.787216,46.129532 197.992401,49.715618 207.091293,47.964474 
	C207.224884,47.938763 207.348007,47.858738 207.782318,47.673218 
	C207.149750,46.575432 206.612961,45.448769 205.902191,44.445335 
	C203.286484,40.752464 200.493240,37.176983 198.061844,33.368935 
	C197.571548,32.601028 197.968002,30.296368 198.641663,29.916338 
	C202.474533,27.754148 204.410385,24.473097 203.876434,20.342548 
	C203.316986,16.014694 200.256485,12.644653 196.073151,12.194224 
	C186.824112,11.198359 177.482651,11.060803 168.319458,10.580504 
	C168.319458,23.719170 168.319458,35.792843 168.319458,47.675591 
	C172.384415,47.675591 176.124710,47.675591 180.234192,47.675591 
	C180.234192,37.266209 180.234192,27.177689 180.234192,16.648436 
	C184.505585,18.047455 190.767395,14.461526 191.736481,20.845749 
	C192.742325,27.472219 185.732864,25.819117 181.817810,27.723694 
	C182.538696,28.995956 183.243408,30.239674 184.024078,32.255032 
M132.616028,11.000000 
	C130.832779,11.000000 129.049530,11.000000 127.227234,11.000000 
	C127.227234,13.208183 127.227234,14.945262 127.227234,17.067463 
	C131.188217,17.067463 134.938538,17.067463 139.045441,17.067463 
	C139.045441,27.514210 139.045441,37.579502 139.045441,47.793312 
	C143.491867,47.793312 147.557449,47.793312 152.000244,47.793312 
	C152.000244,37.529339 152.000244,27.462624 152.000244,17.448826 
	C165.073608,15.947735 165.073608,15.947735 165.921906,11.000000 
	C155.092819,11.000000 144.339966,11.000000 132.616028,11.000000 
z"/>
<path fill="#AD2246" opacity="1.000000" stroke="none" 
	d="
M47.531349,1.000001 
	C48.467583,1.659978 48.797108,2.692767 49.423229,2.924626 
	C60.841579,7.152984 67.312172,15.415567 68.867767,27.328739 
	C69.883095,35.104393 64.453407,48.152309 52.398350,53.862644 
	C50.822849,54.608936 49.298332,55.462856 47.875099,56.633461 
	C39.645767,57.000000 31.291536,57.000000 22.589645,56.628014 
	C22.062208,55.988110 21.934210,55.549374 21.695183,55.476921 
	C12.340358,52.641235 6.177619,46.459694 2.608226,37.477928 
	C2.480434,37.156364 1.554144,37.152130 1.000000,37.000000 
	C1.000000,31.977907 1.000000,26.955816 1.365698,21.592558 
	C5.917887,12.477614 11.812708,5.532633 21.526316,2.600708 
	C21.818630,2.512477 21.848024,1.553179 22.000000,1.000000 
	C30.354233,1.000000 38.708466,1.000000 47.531349,1.000001 
M18.610807,11.871002 
	C18.858530,19.084244 22.991156,23.278053 29.294571,25.961855 
	C30.370958,26.420147 31.836449,27.938013 31.717056,28.763046 
	C31.543402,29.963045 30.311483,31.503902 29.151617,31.984768 
	C22.930235,34.564060 19.285685,38.964966 18.309303,45.984997 
	C20.298679,45.984997 22.063332,45.984997 23.998722,45.984997 
	C25.324306,42.030540 26.877979,38.245319 32.268608,37.405827 
	C32.268608,41.031593 32.268608,44.281219 32.268608,47.472813 
	C34.338734,47.472813 35.940376,47.472813 38.005817,47.472813 
	C38.005817,43.996380 38.005817,40.769836 38.005817,37.543293 
	C38.406578,37.300045 38.807339,37.056801 39.208099,36.813557 
	C41.036522,38.745766 43.770557,40.390316 44.495625,42.672997 
	C45.807430,46.802860 48.139301,46.654018 51.598927,45.810539 
	C50.707699,39.174919 47.147648,34.901245 41.295498,32.143970 
	C39.983868,31.525986 38.572964,30.068569 38.274761,28.755325 
	C38.103992,28.003265 39.901733,26.370123 41.123375,25.809401 
	C47.151237,23.042667 50.907532,18.770834 51.523304,11.916968 
	C47.855789,10.746101 45.843987,11.241397 44.532051,15.169194 
	C43.760490,17.479166 40.918797,19.097687 39.008198,21.027206 
	C38.575809,20.720123 38.143425,20.413042 37.711037,20.105959 
	C37.711037,16.850565 37.711037,13.595171 37.711037,10.382086 
	C35.651531,10.382086 34.046047,10.382086 31.982937,10.382086 
	C31.982937,13.843359 31.982937,17.078745 31.982937,20.314131 
	C31.470842,20.608667 30.958748,20.903202 30.446653,21.197739 
	C27.998886,18.189867 25.551121,15.181995 22.558008,11.503990 
	C22.200102,11.503990 20.721958,11.503990 18.610807,11.871002 
z"/>
<path fill="#000000" opacity="1.000000" stroke="none" 
	d="
M21.531088,1.000000 
	C21.848024,1.553179 21.818630,2.512477 21.526316,2.600708 
	C11.812708,5.532633 5.917887,12.477614 1.365698,21.125696 
	C1.000000,14.405403 1.000000,7.810807 1.000000,1.000000 
	C7.685847,1.000000 14.374011,1.000000 21.531088,1.000000 
z"/>
<path fill="#000000" opacity="1.000000" stroke="none" 
	d="
M1.000000,37.469044 
	C1.554144,37.152130 2.480434,37.156364 2.608226,37.477928 
	C6.177619,46.459694 12.340358,52.641235 21.695183,55.476921 
	C21.934210,55.549374 22.062208,55.988110 22.120993,56.628014 
	C15.075719,57.000000 8.151438,57.000000 1.000000,57.000000 
	C1.000000,50.647823 1.000000,44.292953 1.000000,37.469044 
z"/>
<path fill="#FFFFFF" opacity="1.000000" stroke="none" 
	d="
M107.753098,36.646706 
	C106.023804,39.992332 104.617180,43.071629 102.966866,46.014248 
	C101.343010,48.909676 97.572174,48.949463 96.042641,46.010521 
	C92.723396,39.632671 89.622070,33.141399 86.269165,26.368277 
	C86.269165,33.478245 86.269165,40.404118 86.269165,47.662598 
	C83.479355,47.662598 81.076607,47.662598 78.328110,47.662598 
	C78.328110,35.854485 78.328110,23.782347 78.328110,11.354399 
	C82.143784,11.354399 86.208649,11.354399 90.785347,11.354399 
	C93.981140,18.304323 97.355911,25.643475 101.152557,33.900097 
	C103.293045,29.275698 105.141747,25.308002 106.968422,21.330193 
	C111.884193,10.625456 111.880455,10.623738 123.705872,11.173100 
	C123.705872,23.222113 123.705872,35.291676 123.705872,47.681580 
	C120.449463,47.681580 117.044571,47.681580 113.284035,47.681580 
	C113.284035,40.791031 113.284035,33.705666 113.284035,26.620304 
	C112.939613,26.514112 112.595192,26.407923 112.250778,26.301731 
	C110.823540,29.641327 109.396301,32.980923 107.753098,36.646706 
z"/>
<path fill="#FFFFFF" opacity="1.000000" stroke="none" 
	d="
M183.986099,31.869209 
	C183.243408,30.239674 182.538696,28.995956 181.817810,27.723694 
	C185.732864,25.819117 192.742325,27.472219 191.736481,20.845749 
	C190.767395,14.461526 184.505585,18.047455 180.234192,16.648436 
	C180.234192,27.177689 180.234192,37.266209 180.234192,47.675591 
	C176.124710,47.675591 172.384415,47.675591 168.319458,47.675591 
	C168.319458,35.792843 168.319458,23.719170 168.319458,10.580504 
	C177.482651,11.060803 186.824112,11.198359 196.073151,12.194224 
	C200.256485,12.644653 203.316986,16.014694 203.876434,20.342548 
	C204.410385,24.473097 202.474533,27.754148 198.641663,29.916338 
	C197.968002,30.296368 197.571548,32.601028 198.061844,33.368935 
	C200.493240,37.176983 203.286484,40.752464 205.902191,44.445335 
	C206.612961,45.448769 207.149750,46.575432 207.782318,47.673218 
	C207.348007,47.858738 207.224884,47.938763 207.091293,47.964474 
	C197.992401,49.715618 191.787216,46.129532 187.926682,37.833359 
	C186.983871,35.807304 185.343643,34.105774 183.986099,31.869209 
z"/>
<path fill="#FFFFFF" opacity="1.000000" stroke="none" 
	d="
M133.101562,11.000000 
	C144.339966,11.000000 155.092819,11.000000 165.921906,11.000000 
	C165.073608,15.947735 165.073608,15.947735 152.000244,17.448826 
	C152.000244,27.462624 152.000244,37.529339 152.000244,47.793312 
	C147.557449,47.793312 143.491867,47.793312 139.045441,47.793312 
	C139.045441,37.579502 139.045441,27.514210 139.045441,17.067463 
	C134.938538,17.067463 131.188217,17.067463 127.227234,17.067463 
	C127.227234,14.945262 127.227234,13.208183 127.227234,11.000000 
	C129.049530,11.000000 130.832779,11.000000 133.101562,11.000000 
z"/>
<path fill="#FBF5F7" opacity="1.000000" stroke="none" 
	d="
M18.927311,11.687496 
	C20.721958,11.503990 22.200102,11.503990 22.558008,11.503990 
	C25.551121,15.181995 27.998886,18.189867 30.446653,21.197739 
	C30.958748,20.903202 31.470842,20.608667 31.982937,20.314131 
	C31.982937,17.078745 31.982937,13.843359 31.982937,10.382086 
	C34.046047,10.382086 35.651531,10.382086 37.711037,10.382086 
	C37.711037,13.595171 37.711037,16.850565 37.711037,20.105959 
	C38.143425,20.413042 38.575809,20.720123 39.008198,21.027206 
	C40.918797,19.097687 43.760490,17.479166 44.532051,15.169194 
	C45.843987,11.241397 47.855789,10.746101 51.523304,11.916968 
	C50.907532,18.770834 47.151237,23.042667 41.123375,25.809401 
	C39.901733,26.370123 38.103992,28.003265 38.274761,28.755325 
	C38.572964,30.068569 39.983868,31.525986 41.295498,32.143970 
	C47.147648,34.901245 50.707699,39.174919 51.598927,45.810539 
	C48.139301,46.654018 45.807430,46.802860 44.495625,42.672997 
	C43.770557,40.390316 41.036522,38.745766 39.208099,36.813557 
	C38.807339,37.056801 38.406578,37.300045 38.005817,37.543293 
	C38.005817,40.769836 38.005817,43.996380 38.005817,47.472813 
	C35.940376,47.472813 34.338734,47.472813 32.268608,47.472813 
	C32.268608,44.281219 32.268608,41.031593 32.268608,37.405827 
	C26.877979,38.245319 25.324306,42.030540 23.998722,45.984997 
	C22.063332,45.984997 20.298679,45.984997 18.309303,45.984997 
	C19.285685,38.964966 22.930235,34.564060 29.151617,31.984768 
	C30.311483,31.503902 31.543402,29.963045 31.717056,28.763046 
	C31.836449,27.938013 30.370958,26.420147 29.294571,25.961855 
	C22.991156,23.278053 18.858530,19.084244 18.927311,11.687496 
z"/>
</svg>